<svg xmlns="http://www.w3.org/2000/svg" viewBox="0 0 852.56 507.18"><defs><style>.a{fill:none;stroke:#000;stroke-miterlimit:10;stroke-width:2px;}.b,.f{font-size:25px;font-family:MyriadPro-Regular, Myriad Pro;}.c{letter-spacing:-0.07em;}.d{letter-spacing:0em;}.e{letter-spacing:-0.01em;}.f{letter-spacing:0em;}</style></defs><title>aco</title><line class="a" x1="188.8" y1="89.78" x2="172.8" y2="133.78"/><line class="a" x1="172.8" y1="133.78" x2="34.8" y2="213.78"/><line class="a" x1="0.8" y1="259.78" x2="34.8" y2="213.78"/><line class="a" x1="34.8" y1="304.78" x2="0.8" y2="259.78"/><line class="a" x1="170.8" y1="350.78" x2="34.8" y2="304.78"/><line class="a" x1="187.8" y1="396.78" x2="170.8" y2="350.78"/><line class="a" x1="187.8" y1="475.78" x2="187.8" y2="396.78"/><line class="a" x1="222.8" y1="475.78" x2="222.8" y2="413.78"/><line class="a" x1="368.8" y1="251.78" x2="222.8" y2="413.78"/><line class="a" x1="222.8" y1="87.78" x2="368.8" y2="251.78"/><line class="a" x1="222.8" y1="26.78" x2="222.8" y2="87.78"/><line class="a" x1="205.8" y1="103.78" x2="187.8" y2="148.78"/><line class="a" x1="38.8" y1="232.78" x2="187.8" y2="148.78"/><line class="a" x1="28.8" y1="259.78" x2="38.8" y2="232.78"/><line class="a" x1="44.8" y1="288.78" x2="28.8" y2="259.78"/><line class="a" x1="196.8" y1="343.78" x2="44.8" y2="288.78"/><line class="a" x1="205.8" y1="396.78" x2="196.8" y2="343.78"/><line class="a" x1="332.8" y1="250.78" x2="205.8" y2="396.78"/><line class="a" x1="205.8" y1="103.78" x2="332.8" y2="250.78"/><line class="a" x1="672.8" y1="26.78" x2="673.8" y2="91.78"/><line class="a" x1="655.8" y1="134.78" x2="673.8" y2="91.78"/><line class="a" x1="520.8" y1="210.78" x2="655.8" y2="134.78"/><line class="a" x1="486.8" y1="259.78" x2="520.8" y2="210.78"/><line class="a" x1="521.8" y1="305.78" x2="486.8" y2="259.78"/><line class="a" x1="656.8" y1="351.78" x2="521.8" y2="305.78"/><line class="a" x1="672.8" y1="396.78" x2="656.8" y2="351.78"/><line class="a" x1="672.8" y1="475.78" x2="672.8" y2="396.78"/><line class="a" x1="708.8" y1="475.78" x2="709.8" y2="413.78"/><line class="a" x1="851.8" y1="251.78" x2="709.8" y2="413.78"/><line class="a" x1="708.8" y1="87.78" x2="851.8" y2="251.78"/><line class="a" x1="708.8" y1="26.78" x2="708.8" y2="87.78"/><line class="a" x1="691.8" y1="104.78" x2="676.8" y2="147.78"/><line class="a" x1="522.8" y1="235.78" x2="676.8" y2="147.78"/><line class="a" x1="512.8" y1="257.78" x2="522.8" y2="235.78"/><line class="a" x1="530.8" y1="289.78" x2="512.8" y2="257.78"/><line class="a" x1="683.8" y1="344.78" x2="530.8" y2="289.78"/><line class="a" x1="691.8" y1="396.78" x2="683.8" y2="344.78"/><line class="a" x1="816.8" y1="252.78" x2="691.8" y2="396.78"/><line class="a" x1="691.8" y1="104.78" x2="816.8" y2="252.78"/><text class="b" transform="translate(172.13 21.1)"><tspan class="c">Г</tspan><tspan class="d" x="9.08" y="0">н</tspan><tspan x="22.65" y="0">е</tspan><tspan class="d" x="35.17" y="0">з</tspan><tspan class="e" x="45.87" y="0">д</tspan><tspan class="d" x="58.95" y="0">о</tspan></text><text class="b" transform="translate(659.19 20.93)"><tspan class="c">Г</tspan><tspan class="d" x="9.08" y="0">н</tspan><tspan x="22.65" y="0">е</tspan><tspan class="d" x="35.17" y="0">з</tspan><tspan class="e" x="45.87" y="0">д</tspan><tspan class="d" x="58.95" y="0">о</tspan></text><text class="f" transform="translate(176.19 500.93)">Пища</text><text class="f" transform="translate(664.34 500.93)">Пища</text><circle cx="198.3" cy="73.28" r="5.5"/><circle cx="206.3" cy="58.28" r="5.5"/><circle cx="214.3" cy="89.28" r="5.5"/><circle cx="138.3" cy="166.28" r="5.5"/><circle cx="129.3" cy="170.28" r="5.5"/><circle cx="36.3" cy="227.28" r="5.5"/><circle cx="36.3" cy="290.28" r="5.5"/><circle cx="129.3" cy="329.28" r="5.5"/><circle cx="291.3" cy="321.28" r="5.5"/><circle cx="316.3" cy="205.28" r="5.5"/><circle cx="307.3" cy="205.28" r="5.5"/><circle cx="257.3" cy="143.28" r="5.5"/><circle cx="513.3" cy="282.28" r="5.5"/><circle cx="546.3" cy="212.28" r="5.5"/><circle cx="598.3" cy="321.28" r="5.5"/><circle cx="674.3" cy="376.28" r="5.5"/><circle cx="691.3" cy="414.28" r="5.5"/><circle cx="682.3" cy="431.28" r="5.5"/><circle cx="691.3" cy="430.28" r="5.5"/><circle cx="699.3" cy="422.28" r="5.5"/><circle cx="690.3" cy="446.28" r="5.5"/><circle cx="699.3" cy="453.28" r="5.5"/><circle cx="708.3" cy="399.28" r="5.5"/><circle cx="725.3" cy="376.28" r="5.5"/><circle cx="742.3" cy="361.28" r="5.5"/><circle cx="742.3" cy="353.28" r="5.5"/><circle cx="754.3" cy="345.28" r="5.5"/><circle cx="775.3" cy="330.28" r="5.5"/><circle cx="776.3" cy="321.28" r="5.5"/><circle cx="785.3" cy="306.28" r="5.5"/><circle cx="826.3" cy="267.28" r="5.5"/><circle cx="836.3" cy="252.28" r="5.5"/><circle cx="826.3" cy="252.28" r="5.5"/><circle cx="818.3" cy="229.28" r="5.5"/><circle cx="810.3" cy="213.28" r="5.5"/><circle cx="801.3" cy="213.28" r="5.5"/><circle cx="776.3" cy="190.28" r="5.5"/><circle cx="759.3" cy="165.28" r="5.5"/><circle cx="750.3" cy="158.28" r="5.5"/><circle cx="750.3" cy="150.28" r="5.5"/><circle cx="733.3" cy="135.28" r="5.5"/><circle cx="716.3" cy="121.28" r="5.5"/><circle cx="716.3" cy="112.28" r="5.5"/><circle cx="699.3" cy="96.28" r="5.5"/><circle cx="673.3" cy="127.28" r="5.5"/><circle cx="691.3" cy="81.28" r="5.5"/><circle cx="682.3" cy="81.28" r="5.5"/><circle cx="691.3" cy="66.28" r="5.5"/><circle cx="691.3" cy="50.28" r="5.5"/><circle cx="700.3" cy="59.28" r="5.5"/><line class="a" x1="187.8" y1="27.78" x2="188.8" y2="89.78"/></svg>