<svg id="ff66d89b-ef7c-4b57-9406-72365dd2dab7" data-name="Слой 3" xmlns="http://www.w3.org/2000/svg" viewBox="0 0 479.41 327.53"><title>logo</title><path d="M1153.25,404.5c-98,9.31-20.49,120.84-.18,166.71C1173.61,525.34,1251.38,413.91,1153.25,404.5Zm0,31c25.59-.37,25.59,39.82,0,39.44C1127.66,475.34,1127.66,435.15,1153.25,435.53Z" transform="translate(-722.33 -373.34)"/><path d="M814.42,373.34c-185.42,17.6-40.15,228.27-.34,317C854.43,601.27,1000.08,391.32,814.42,373.34Zm0,59c48.65-.71,48.65,75.71,0,75C765.76,508.05,765.76,431.62,814.42,432.34Z" transform="translate(-722.33 -373.34)"/><polygon points="411.71 210.53 306.71 217.53 221.71 315.53 125.71 327.53 147.71 279.53 209.71 284.53 300.71 203.53 411.71 210.53"/></svg>