<svg xmlns="http://www.w3.org/2000/svg" viewBox="0 0 240 240"><defs><style>.a{fill:#323232;}.b{fill:#c8daea;}.c{fill:#a9c6d8;}.d{fill:#fff;}</style></defs><title>tg</title><circle class="a" cx="120" cy="120" r="120"/><path class="b" d="M81.23,128.77l14.24,39.41s1.78,3.69,3.68,3.69,30.26-29.5,30.26-29.5l31.52-60.89L81.74,118.6Z"/><path class="c" d="M100.11,138.88l-2.74,29s-1.14,8.9,7.76,0,17.41-15.76,17.41-15.76"/><path class="d" d="M81.49,130.18,52.2,120.64s-3.5-1.42-2.37-4.64c.23-.67.7-1.23,2.1-2.2C58.42,109.27,172,68.44,172,68.44s3.21-1.08,5.1-.37A2.76,2.76,0,0,1,179,70.13a9.31,9.31,0,0,1,.25,2.58c0,.76-.1,1.45-.17,2.55-.69,11.16-21.4,94.49-21.4,94.49s-1.24,4.88-5.67,5a8.12,8.12,0,0,1-5.93-2.29c-8.71-7.49-38.82-27.73-45.47-32.18a1.25,1.25,0,0,1-.55-.9c-.09-.47.42-1,.42-1s52.43-46.6,53.82-51.49c.11-.38-.3-.57-.85-.4C150,87.76,89.63,125.88,83,130.09A3.37,3.37,0,0,1,81.49,130.18Z"/></svg>