<svg xmlns="http://www.w3.org/2000/svg" viewBox="0 0 200.05 162.51"><defs><style>.a{fill:#323232;fill-rule:evenodd;}</style></defs><title>tw</title><path class="a" d="M200,19.25a82.67,82.67,0,0,1-23.58,6.45A41.08,41.08,0,0,0,194.44,3a82,82,0,0,1-26.05,10A41.07,41.07,0,0,0,97.39,41a40.4,40.4,0,0,0,1.07,9.34A116.45,116.45,0,0,1,13.88,7.49,41.06,41.06,0,0,0,26.6,62.26,40.9,40.9,0,0,1,8,57.12v.51A41.05,41.05,0,0,0,40.92,97.86a41.18,41.18,0,0,1-18.53.69,41.09,41.09,0,0,0,38.32,28.5,82.35,82.35,0,0,1-51,17.58,88.12,88.12,0,0,1-9.79-.57,116.17,116.17,0,0,0,62.92,18.45c75.48,0,116.75-62.53,116.75-116.76,0-1.79,0-3.55-.12-5.31A83.1,83.1,0,0,0,200,19.19Z" transform="translate(0.06)"/></svg>